<svg width="828" height="109" viewBox="0 0 828 109" fill="none" xmlns="http://www.w3.org/2000/svg">
<g filter="url(#filter0_d_101_220)">
<rect x="11" y="36" width="750" height="48" fill="white"/>
<path d="M29.6 57.88C30.168 57.88 30.668 58.004 31.1 58.252C31.54 58.5 31.884 58.86 32.132 59.332C32.38 59.796 32.504 60.352 32.504 61C32.504 61.648 32.38 62.208 32.132 62.68C31.884 63.144 31.54 63.5 31.1 63.748C30.668 63.996 30.168 64.12 29.6 64.12C29.04 64.12 28.54 63.996 28.1 63.748C27.66 63.5 27.316 63.144 27.068 62.68C26.82 62.208 26.696 61.648 26.696 61C26.696 60.352 26.82 59.796 27.068 59.332C27.316 58.86 27.66 58.5 28.1 58.252C28.54 58.004 29.04 57.88 29.6 57.88ZM29.6 58.708C28.992 58.708 28.516 58.912 28.172 59.32C27.828 59.728 27.656 60.288 27.656 61C27.656 61.712 27.828 62.272 28.172 62.68C28.516 63.088 28.992 63.292 29.6 63.292C30.208 63.292 30.684 63.088 31.028 62.68C31.372 62.272 31.544 61.712 31.544 61C31.544 60.288 31.372 59.728 31.028 59.32C30.684 58.912 30.208 58.708 29.6 58.708ZM34.7913 56.848C34.5753 56.848 34.3993 56.784 34.2633 56.656C34.1353 56.52 34.0713 56.344 34.0713 56.128C34.0713 55.912 34.1353 55.74 34.2633 55.612C34.3993 55.476 34.5753 55.408 34.7913 55.408C35.0073 55.408 35.1793 55.476 35.3073 55.612C35.4433 55.74 35.5113 55.912 35.5113 56.128C35.5113 56.344 35.4433 56.52 35.3073 56.656C35.1793 56.784 35.0073 56.848 34.7913 56.848ZM35.2713 58V64H34.3113V58H35.2713ZM42.1908 66.34C41.1908 66.34 40.3108 66.132 39.5508 65.716C38.7988 65.3 38.2148 64.716 37.7988 63.964C37.3828 63.204 37.1748 62.324 37.1748 61.324C37.1748 60.548 37.3028 59.84 37.5588 59.2C37.8228 58.56 38.1908 58.008 38.6628 57.544C39.1348 57.072 39.6908 56.712 40.3308 56.464C40.9708 56.208 41.6748 56.08 42.4428 56.08C43.1948 56.08 43.8628 56.204 44.4468 56.452C45.0308 56.692 45.5228 57.028 45.9228 57.46C46.3308 57.892 46.6388 58.388 46.8468 58.948C47.0548 59.508 47.1588 60.1 47.1588 60.724C47.1588 61.42 47.0428 62.02 46.8108 62.524C46.5788 63.028 46.2788 63.416 45.9108 63.688C45.5428 63.96 45.1468 64.096 44.7228 64.096C44.2908 64.096 43.9708 63.984 43.7628 63.76C43.5628 63.536 43.4788 63.252 43.5108 62.908C43.3348 63.244 43.0708 63.512 42.7188 63.712C42.3668 63.912 42.0028 64.012 41.6268 64.012C41.2108 64.012 40.8428 63.912 40.5228 63.712C40.2108 63.512 39.9668 63.236 39.7908 62.884C39.6148 62.524 39.5268 62.112 39.5268 61.648C39.5268 61.048 39.6428 60.508 39.8748 60.028C40.1148 59.54 40.4388 59.156 40.8468 58.876C41.2628 58.588 41.7348 58.444 42.2628 58.444C42.7348 58.444 43.1268 58.564 43.4388 58.804C43.7588 59.044 43.9708 59.364 44.0748 59.764L44.3628 58.552H45.2148L44.3028 62.464C44.2868 62.544 44.2708 62.62 44.2548 62.692C44.2468 62.756 44.2428 62.82 44.2428 62.884C44.2428 63.108 44.2988 63.256 44.4108 63.328C44.5308 63.392 44.6628 63.424 44.8068 63.424C45.0948 63.424 45.3628 63.324 45.6108 63.124C45.8588 62.924 46.0588 62.624 46.2108 62.224C46.3708 61.816 46.4508 61.316 46.4508 60.724C46.4508 59.972 46.2868 59.3 45.9588 58.708C45.6388 58.116 45.1788 57.648 44.5788 57.304C43.9868 56.96 43.2868 56.788 42.4788 56.788C41.5988 56.788 40.8188 56.976 40.1388 57.352C39.4588 57.72 38.9268 58.244 38.5428 58.924C38.1668 59.604 37.9788 60.404 37.9788 61.324C37.9788 62.22 38.1628 62.988 38.5308 63.628C38.9068 64.268 39.4108 64.76 40.0428 65.104C40.6828 65.456 41.3988 65.632 42.1908 65.632C42.8708 65.632 43.4068 65.544 43.7988 65.368C44.1908 65.2 44.5188 65.016 44.7828 64.816L45.2028 65.404C44.9868 65.572 44.7428 65.724 44.4708 65.86C44.2068 66.004 43.8908 66.12 43.5228 66.208C43.1548 66.296 42.7108 66.34 42.1908 66.34ZM41.9028 63.28C42.2388 63.28 42.5468 63.172 42.8268 62.956C43.1068 62.732 43.3268 62.432 43.4868 62.056C43.6548 61.672 43.7388 61.244 43.7388 60.772C43.7388 60.292 43.6068 59.908 43.3428 59.62C43.0868 59.332 42.7468 59.188 42.3228 59.188C41.9468 59.188 41.6108 59.296 41.3148 59.512C41.0188 59.728 40.7868 60.02 40.6188 60.388C40.4588 60.756 40.3788 61.172 40.3788 61.636C40.3788 62.164 40.5108 62.572 40.7748 62.86C41.0388 63.14 41.4148 63.28 41.9028 63.28ZM48.9949 64V58H49.7749L49.9069 58.984C50.2429 58.248 50.8829 57.88 51.8269 57.88C51.9309 57.88 52.0429 57.888 52.1629 57.904C52.2909 57.92 52.3989 57.952 52.4869 58L52.3189 58.876C52.2309 58.844 52.1349 58.82 52.0309 58.804C51.9269 58.788 51.7789 58.78 51.5869 58.78C51.3389 58.78 51.0869 58.852 50.8309 58.996C50.5829 59.14 50.3749 59.36 50.2069 59.656C50.0389 59.944 49.9549 60.312 49.9549 60.76V64H48.9949ZM56.1898 57.88C56.7578 57.88 57.2578 58.004 57.6898 58.252C58.1298 58.5 58.4738 58.86 58.7218 59.332C58.9698 59.796 59.0938 60.352 59.0938 61C59.0938 61.648 58.9698 62.208 58.7218 62.68C58.4738 63.144 58.1298 63.5 57.6898 63.748C57.2578 63.996 56.7578 64.12 56.1898 64.12C55.6298 64.12 55.1298 63.996 54.6898 63.748C54.2498 63.5 53.9058 63.144 53.6578 62.68C53.4098 62.208 53.2858 61.648 53.2858 61C53.2858 60.352 53.4098 59.796 53.6578 59.332C53.9058 58.86 54.2498 58.5 54.6898 58.252C55.1298 58.004 55.6298 57.88 56.1898 57.88ZM56.1898 58.708C55.5818 58.708 55.1058 58.912 54.7618 59.32C54.4178 59.728 54.2458 60.288 54.2458 61C54.2458 61.712 54.4178 62.272 54.7618 62.68C55.1058 63.088 55.5818 63.292 56.1898 63.292C56.7978 63.292 57.2738 63.088 57.6178 62.68C57.9618 62.272 58.1338 61.712 58.1338 61C58.1338 60.288 57.9618 59.728 57.6178 59.32C57.2738 58.912 56.7978 58.708 56.1898 58.708ZM63.3852 57.88C64.0012 57.88 64.5132 58.024 64.9212 58.312C65.3292 58.592 65.6452 58.98 65.8692 59.476L64.9572 59.908C64.8292 59.524 64.6332 59.232 64.3692 59.032C64.1132 58.824 63.7772 58.72 63.3612 58.72C62.7612 58.72 62.2892 58.924 61.9452 59.332C61.6092 59.732 61.4412 60.288 61.4412 61C61.4412 61.712 61.6092 62.272 61.9452 62.68C62.2892 63.08 62.7612 63.28 63.3612 63.28C63.8332 63.28 64.2092 63.172 64.4892 62.956C64.7692 62.74 64.9532 62.436 65.0412 62.044L65.9292 62.356C65.7292 62.908 65.4132 63.34 64.9812 63.652C64.5572 63.964 64.0252 64.12 63.3852 64.12C62.8252 64.12 62.3252 63.996 61.8852 63.748C61.4452 63.5 61.1012 63.144 60.8532 62.68C60.6052 62.208 60.4812 61.648 60.4812 61C60.4812 60.352 60.6052 59.796 60.8532 59.332C61.1012 58.86 61.4452 58.5 61.8852 58.252C62.3252 58.004 62.8252 57.88 63.3852 57.88ZM72.884 58L70.544 60.34L73.028 64H71.864L69.848 61.036L68.576 62.308V64H67.616V55.24H68.576V61.108L71.672 58H72.884ZM76.7217 64.12C76.1537 64.12 75.6457 63.996 75.1977 63.748C74.7577 63.5 74.4137 63.144 74.1657 62.68C73.9177 62.208 73.7937 61.648 73.7937 61C73.7937 60.352 73.9177 59.796 74.1657 59.332C74.4137 58.86 74.7537 58.5 75.1857 58.252C75.6177 58.004 76.1097 57.88 76.6617 57.88C77.2217 57.88 77.6977 58 78.0897 58.24C78.4897 58.48 78.7937 58.808 79.0017 59.224C79.2097 59.632 79.3137 60.092 79.3137 60.604C79.3137 60.74 79.3097 60.864 79.3017 60.976C79.2937 61.088 79.2817 61.188 79.2657 61.276H74.7417C74.7897 61.908 74.9857 62.4 75.3297 62.752C75.6737 63.104 76.1297 63.28 76.6977 63.28C77.1377 63.28 77.4937 63.196 77.7657 63.028C78.0457 62.86 78.2697 62.632 78.4377 62.344L79.1937 62.788C78.9697 63.196 78.6457 63.52 78.2217 63.76C77.8057 64 77.3057 64.12 76.7217 64.12ZM76.6377 58.72C76.1337 58.72 75.7177 58.872 75.3897 59.176C75.0697 59.472 74.8657 59.888 74.7777 60.424H78.3537C78.3297 59.88 78.1617 59.46 77.8497 59.164C77.5377 58.868 77.1337 58.72 76.6377 58.72ZM84.5637 58V58.828H82.3797V62.344C82.3797 62.64 82.4637 62.86 82.6317 63.004C82.7997 63.148 83.0157 63.22 83.2797 63.22C83.5117 63.22 83.7117 63.18 83.8797 63.1C84.0477 63.02 84.1997 62.912 84.3357 62.776L84.6717 63.58C84.4877 63.748 84.2677 63.88 84.0117 63.976C83.7637 64.072 83.4757 64.12 83.1477 64.12C82.8437 64.12 82.5597 64.068 82.2957 63.964C82.0317 63.852 81.8197 63.68 81.6597 63.448C81.5077 63.208 81.4277 62.896 81.4197 62.512V58.828H80.2197V58H81.4197V56.56L82.3797 56.296V58H84.5637ZM88.151 64.12C87.567 64.12 87.027 63.996 86.531 63.748C86.043 63.5 85.667 63.148 85.403 62.692L86.219 62.104C86.395 62.472 86.651 62.76 86.987 62.968C87.331 63.176 87.743 63.28 88.223 63.28C88.647 63.28 88.979 63.2 89.219 63.04C89.459 62.872 89.579 62.656 89.579 62.392C89.579 62.224 89.523 62.072 89.411 61.936C89.307 61.792 89.103 61.688 88.799 61.624L87.359 61.324C86.775 61.204 86.355 61.004 86.099 60.724C85.851 60.444 85.727 60.096 85.727 59.68C85.727 59.352 85.819 59.052 86.003 58.78C86.195 58.508 86.463 58.292 86.807 58.132C87.159 57.964 87.571 57.88 88.043 57.88C88.635 57.88 89.135 57.996 89.543 58.228C89.951 58.46 90.255 58.788 90.455 59.212L89.651 59.74C89.515 59.388 89.295 59.132 88.991 58.972C88.687 58.804 88.371 58.72 88.043 58.72C87.611 58.72 87.275 58.808 87.035 58.984C86.795 59.16 86.675 59.38 86.675 59.644C86.675 59.82 86.735 59.984 86.855 60.136C86.975 60.28 87.199 60.384 87.527 60.448L89.027 60.76C89.587 60.872 89.979 61.056 90.203 61.312C90.427 61.568 90.539 61.88 90.539 62.248C90.539 62.816 90.319 63.272 89.879 63.616C89.439 63.952 88.863 64.12 88.151 64.12ZM94.8271 64.12C94.2591 64.12 93.7511 63.996 93.3031 63.748C92.8631 63.5 92.5191 63.144 92.2711 62.68C92.0231 62.208 91.8991 61.648 91.8991 61C91.8991 60.352 92.0231 59.796 92.2711 59.332C92.5191 58.86 92.8591 58.5 93.2911 58.252C93.7231 58.004 94.2151 57.88 94.7671 57.88C95.3271 57.88 95.8031 58 96.1951 58.24C96.5951 58.48 96.8991 58.808 97.1071 59.224C97.3151 59.632 97.4191 60.092 97.4191 60.604C97.4191 60.74 97.4151 60.864 97.4071 60.976C97.3991 61.088 97.3871 61.188 97.3711 61.276H92.8471C92.8951 61.908 93.0911 62.4 93.4351 62.752C93.7791 63.104 94.2351 63.28 94.8031 63.28C95.2431 63.28 95.5991 63.196 95.8711 63.028C96.1511 62.86 96.3751 62.632 96.5431 62.344L97.2991 62.788C97.0751 63.196 96.7511 63.52 96.3271 63.76C95.9111 64 95.4111 64.12 94.8271 64.12ZM94.7431 58.72C94.2391 58.72 93.8231 58.872 93.4951 59.176C93.1751 59.472 92.9711 59.888 92.8831 60.424H96.4591C96.4351 59.88 96.2671 59.46 95.9551 59.164C95.6431 58.868 95.2391 58.72 94.7431 58.72ZM102.749 60.124C102.749 59.676 102.629 59.332 102.389 59.092C102.149 58.844 101.809 58.72 101.369 58.72C100.953 58.72 100.601 58.812 100.313 58.996C100.025 59.172 99.8129 59.46 99.6769 59.86L98.8969 59.38C99.0569 58.932 99.3529 58.572 99.7849 58.3C100.217 58.02 100.753 57.88 101.393 57.88C101.825 57.88 102.217 57.956 102.569 58.108C102.921 58.252 103.197 58.476 103.397 58.78C103.605 59.076 103.709 59.46 103.709 59.932V62.836C103.709 63.124 103.861 63.268 104.165 63.268C104.317 63.268 104.465 63.248 104.609 63.208L104.561 63.964C104.401 64.044 104.193 64.084 103.937 64.084C103.641 64.084 103.385 64.012 103.169 63.868C102.961 63.724 102.825 63.504 102.761 63.208C102.553 63.52 102.269 63.752 101.909 63.904C101.549 64.048 101.193 64.12 100.841 64.12C100.489 64.12 100.161 64.06 99.8569 63.94C99.5529 63.82 99.3089 63.64 99.1249 63.4C98.9489 63.152 98.8609 62.848 98.8609 62.488C98.8609 62.04 99.0089 61.672 99.3049 61.384C99.6089 61.088 100.029 60.888 100.565 60.784L102.749 60.352V60.124ZM99.8449 62.44C99.8449 62.688 99.9409 62.892 100.133 63.052C100.333 63.204 100.613 63.28 100.973 63.28C101.285 63.28 101.573 63.228 101.837 63.124C102.109 63.012 102.329 62.848 102.497 62.632C102.665 62.408 102.749 62.124 102.749 61.78V61.144L101.009 61.504C100.617 61.584 100.325 61.696 100.133 61.84C99.9409 61.984 99.8449 62.184 99.8449 62.44ZM109.407 58V58.828H107.223V62.344C107.223 62.64 107.307 62.86 107.475 63.004C107.643 63.148 107.859 63.22 108.123 63.22C108.355 63.22 108.555 63.18 108.723 63.1C108.891 63.02 109.043 62.912 109.179 62.776L109.515 63.58C109.331 63.748 109.111 63.88 108.855 63.976C108.607 64.072 108.319 64.12 107.991 64.12C107.687 64.12 107.403 64.068 107.139 63.964C106.875 63.852 106.663 63.68 106.503 63.448C106.351 63.208 106.271 62.896 106.263 62.512V58.828H105.063V58H106.263V56.56L107.223 56.296V58H109.407ZM111.315 62.56C111.547 62.56 111.735 62.632 111.879 62.776C112.023 62.92 112.095 63.108 112.095 63.34C112.095 63.572 112.023 63.76 111.879 63.904C111.735 64.048 111.547 64.12 111.315 64.12C111.083 64.12 110.895 64.048 110.751 63.904C110.607 63.76 110.535 63.572 110.535 63.34C110.535 63.108 110.607 62.92 110.751 62.776C110.895 62.632 111.083 62.56 111.315 62.56ZM116.272 57.88C116.888 57.88 117.4 58.024 117.808 58.312C118.216 58.592 118.532 58.98 118.756 59.476L117.844 59.908C117.716 59.524 117.52 59.232 117.256 59.032C117 58.824 116.664 58.72 116.248 58.72C115.648 58.72 115.176 58.924 114.832 59.332C114.496 59.732 114.328 60.288 114.328 61C114.328 61.712 114.496 62.272 114.832 62.68C115.176 63.08 115.648 63.28 116.248 63.28C116.72 63.28 117.096 63.172 117.376 62.956C117.656 62.74 117.84 62.436 117.928 62.044L118.816 62.356C118.616 62.908 118.3 63.34 117.868 63.652C117.444 63.964 116.912 64.12 116.272 64.12C115.712 64.12 115.212 63.996 114.772 63.748C114.332 63.5 113.988 63.144 113.74 62.68C113.492 62.208 113.368 61.648 113.368 61C113.368 60.352 113.492 59.796 113.74 59.332C113.988 58.86 114.332 58.5 114.772 58.252C115.212 58.004 115.712 57.88 116.272 57.88ZM122.987 57.88C123.555 57.88 124.055 58.004 124.487 58.252C124.927 58.5 125.271 58.86 125.519 59.332C125.767 59.796 125.891 60.352 125.891 61C125.891 61.648 125.767 62.208 125.519 62.68C125.271 63.144 124.927 63.5 124.487 63.748C124.055 63.996 123.555 64.12 122.987 64.12C122.427 64.12 121.927 63.996 121.487 63.748C121.047 63.5 120.703 63.144 120.455 62.68C120.207 62.208 120.083 61.648 120.083 61C120.083 60.352 120.207 59.796 120.455 59.332C120.703 58.86 121.047 58.5 121.487 58.252C121.927 58.004 122.427 57.88 122.987 57.88ZM122.987 58.708C122.379 58.708 121.903 58.912 121.559 59.32C121.215 59.728 121.043 60.288 121.043 61C121.043 61.712 121.215 62.272 121.559 62.68C121.903 63.088 122.379 63.292 122.987 63.292C123.595 63.292 124.071 63.088 124.415 62.68C124.759 62.272 124.931 61.712 124.931 61C124.931 60.288 124.759 59.728 124.415 59.32C124.071 58.912 123.595 58.708 122.987 58.708ZM127.698 64V58H128.538L128.598 58.936C128.814 58.568 129.094 58.3 129.438 58.132C129.79 57.964 130.15 57.88 130.518 57.88C130.942 57.88 131.342 57.976 131.718 58.168C132.094 58.36 132.382 58.656 132.582 59.056C132.71 58.784 132.89 58.564 133.122 58.396C133.354 58.22 133.606 58.092 133.878 58.012C134.158 57.924 134.422 57.88 134.67 57.88C135.054 57.88 135.418 57.96 135.762 58.12C136.114 58.28 136.402 58.528 136.626 58.864C136.85 59.2 136.962 59.632 136.962 60.16V64H136.002V60.256C136.002 59.712 135.866 59.32 135.594 59.08C135.322 58.84 134.986 58.72 134.586 58.72C134.274 58.72 133.982 58.796 133.71 58.948C133.438 59.1 133.218 59.324 133.05 59.62C132.89 59.916 132.81 60.28 132.81 60.712V64H131.85V60.256C131.85 59.712 131.714 59.32 131.442 59.08C131.17 58.84 130.834 58.72 130.434 58.72C130.17 58.72 129.898 58.792 129.618 58.936C129.346 59.072 129.118 59.292 128.934 59.596C128.75 59.9 128.658 60.3 128.658 60.796V64H127.698Z" fill="#6A6A6A"/>
<rect x="11" y="36" width="5" height="48" fill="#04D361"/>
<rect x="761" y="36" width="48" height="48" fill="#8257E5"/>
<path d="M795 50L784 61" stroke="white" stroke-width="2" stroke-linecap="round" stroke-linejoin="round"/>
<path d="M795 50L788 70L784 61L775 57L795 50Z" stroke="white" stroke-width="2" stroke-linecap="round" stroke-linejoin="round"/>
</g>
<path d="M12.575 14H14.843V2.45H12.575V14ZM17.6811 14H19.8301V9.758C19.8301 9.34267 19.9677 8.995 20.2431 8.715C20.5184 8.43033 20.8941 8.288 21.3701 8.288C21.8367 8.288 22.2031 8.43267 22.4691 8.722C22.7397 9.00667 22.8751 9.40567 22.8751 9.919V14H25.0241V9.464C25.0241 8.89467 24.9051 8.39767 24.6671 7.973C24.4291 7.54367 24.1001 7.21 23.6801 6.972C23.2647 6.72933 22.7817 6.608 22.2311 6.608C21.7364 6.608 21.2814 6.70367 20.8661 6.895C20.4507 7.08167 20.1054 7.32667 19.8301 7.63V6.832H17.6811V14ZM29.3771 14.224C30.3664 14.224 31.1364 14.014 31.6871 13.594C32.2424 13.1693 32.5201 12.5673 32.5201 11.788C32.5201 11.3633 32.4407 11.025 32.2821 10.773C32.1234 10.5163 31.9041 10.3087 31.6241 10.15C31.3487 9.99133 31.0314 9.84667 30.6721 9.716C30.4527 9.63667 30.2217 9.55033 29.9791 9.457C29.7411 9.359 29.5381 9.247 29.3701 9.121C29.2067 8.995 29.1251 8.85033 29.1251 8.687C29.1251 8.50967 29.2044 8.36267 29.3631 8.246C29.5217 8.12933 29.7341 8.071 30.0001 8.071C30.4714 8.071 31.0104 8.26467 31.6171 8.652L32.3521 7.273C31.4654 6.839 30.6767 6.622 29.9861 6.622C29.4167 6.622 28.9127 6.71767 28.4741 6.909C28.0401 7.10033 27.6994 7.36633 27.4521 7.707C27.2047 8.043 27.0811 8.43267 27.0811 8.876C27.0811 9.24467 27.1627 9.548 27.3261 9.786C27.4941 10.0193 27.7111 10.213 27.9771 10.367C28.2431 10.521 28.5207 10.6587 28.8101 10.78C29.3141 10.99 29.6851 11.1557 29.9231 11.277C30.1611 11.3937 30.2801 11.5897 30.2801 11.865C30.2801 12.1123 30.1961 12.3037 30.0281 12.439C29.8647 12.5697 29.6477 12.635 29.3771 12.635C28.7144 12.635 28.0751 12.3083 27.4591 11.655L26.5561 13.097C27.2001 13.8483 28.1404 14.224 29.3771 14.224ZM35.5821 5.341C35.9321 5.341 36.2308 5.215 36.4781 4.963C36.7255 4.711 36.8491 4.41 36.8491 4.06C36.8491 3.71 36.7255 3.41133 36.4781 3.164C36.2308 2.91667 35.9321 2.793 35.5821 2.793C35.2275 2.793 34.9241 2.91667 34.6721 3.164C34.4248 3.41133 34.3011 3.71 34.3011 4.06C34.3011 4.41467 34.4248 4.718 34.6721 4.97C34.9241 5.21733 35.2275 5.341 35.5821 5.341ZM34.5041 14H36.6531V6.832H34.5041V14ZM39.1869 14H41.3359V9.996C41.3359 9.73 41.4129 9.48267 41.5669 9.254C41.7256 9.02067 41.9286 8.83167 42.1759 8.687C42.4279 8.54233 42.6939 8.47 42.9739 8.47C43.3799 8.47 43.7626 8.58667 44.1219 8.82L45.0179 7.007C44.8313 6.89033 44.6026 6.79467 44.3319 6.72C44.0659 6.64533 43.8069 6.608 43.5549 6.608C43.1116 6.608 42.6963 6.71767 42.3089 6.937C41.9263 7.15167 41.6019 7.45967 41.3359 7.861V6.832H39.1869V14ZM49.0939 14.224C49.5839 14.224 50.0412 14.1237 50.4659 13.923C50.8952 13.7177 51.2732 13.4283 51.5999 13.055V14H53.7489V6.832H51.5999V7.707C51.3152 7.36167 50.9536 7.09333 50.5149 6.902C50.0762 6.706 49.6026 6.608 49.0939 6.608C48.4032 6.608 47.7896 6.776 47.2529 7.112C46.7209 7.44333 46.3032 7.896 45.9999 8.47C45.6966 9.03933 45.5449 9.68333 45.5449 10.402C45.5449 11.1393 45.7036 11.7973 46.0209 12.376C46.3382 12.95 46.7629 13.4027 47.2949 13.734C47.8316 14.0607 48.4312 14.224 49.0939 14.224ZM49.7309 12.397C49.1756 12.397 48.7159 12.2103 48.3519 11.837C47.9879 11.4637 47.8059 10.99 47.8059 10.416C47.8059 9.842 47.9879 9.36833 48.3519 8.995C48.7206 8.62167 49.1802 8.435 49.7309 8.435C50.2862 8.435 50.7436 8.62167 51.1029 8.995C51.4669 9.36367 51.6489 9.83733 51.6489 10.416C51.6489 10.9947 51.4692 11.4707 51.1099 11.844C50.7506 12.2127 50.2909 12.397 49.7309 12.397ZM62.0802 14.224C63.0695 14.224 63.8395 14.014 64.3902 13.594C64.9455 13.1693 65.2232 12.5673 65.2232 11.788C65.2232 11.3633 65.1439 11.025 64.9852 10.773C64.8265 10.5163 64.6072 10.3087 64.3272 10.15C64.0519 9.99133 63.7345 9.84667 63.3752 9.716C63.1559 9.63667 62.9249 9.55033 62.6822 9.457C62.4442 9.359 62.2412 9.247 62.0732 9.121C61.9099 8.995 61.8282 8.85033 61.8282 8.687C61.8282 8.50967 61.9075 8.36267 62.0662 8.246C62.2249 8.12933 62.4372 8.071 62.7032 8.071C63.1745 8.071 63.7135 8.26467 64.3202 8.652L65.0552 7.273C64.1685 6.839 63.3799 6.622 62.6892 6.622C62.1199 6.622 61.6159 6.71767 61.1772 6.909C60.7432 7.10033 60.4025 7.36633 60.1552 7.707C59.9079 8.043 59.7842 8.43267 59.7842 8.876C59.7842 9.24467 59.8659 9.548 60.0292 9.786C60.1972 10.0193 60.4142 10.213 60.6802 10.367C60.9462 10.521 61.2239 10.6587 61.5132 10.78C62.0172 10.99 62.3882 11.1557 62.6262 11.277C62.8642 11.3937 62.9832 11.5897 62.9832 11.865C62.9832 12.1123 62.8992 12.3037 62.7312 12.439C62.5679 12.5697 62.3509 12.635 62.0802 12.635C61.4175 12.635 60.7782 12.3083 60.1622 11.655L59.2592 13.097C59.9032 13.8483 60.8435 14.224 62.0802 14.224ZM70.6583 14.224C71.4143 14.224 72.1003 14.0607 72.7163 13.734C73.3323 13.4073 73.8083 12.9547 74.1443 12.376L72.5973 11.599C72.3313 11.9163 72.0536 12.1473 71.7643 12.292C71.4796 12.4367 71.1506 12.509 70.7773 12.509C70.1799 12.509 69.6993 12.3433 69.3353 12.012C68.9713 11.6807 68.7893 11.242 68.7893 10.696H74.2843C74.2983 10.5747 74.3053 10.493 74.3053 10.451C74.3099 10.4043 74.3123 10.3507 74.3123 10.29C74.3123 9.55733 74.1536 8.91567 73.8363 8.365C73.5236 7.81433 73.0849 7.385 72.5203 7.077C71.9603 6.76433 71.3069 6.608 70.5603 6.608C69.8136 6.608 69.1393 6.77833 68.5373 7.119C67.9399 7.455 67.4639 7.91 67.1093 8.484C66.7546 9.058 66.5773 9.702 66.5773 10.416C66.5773 11.1393 66.7546 11.788 67.1093 12.362C67.4686 12.936 67.9563 13.391 68.5723 13.727C69.1883 14.0583 69.8836 14.224 70.6583 14.224ZM68.8663 9.506C68.9129 9.09067 69.0856 8.764 69.3843 8.526C69.6829 8.288 70.0656 8.169 70.5323 8.169C70.9756 8.169 71.3443 8.288 71.6383 8.526C71.9369 8.764 72.1236 9.09067 72.1983 9.506H68.8663ZM79.7654 14.224C81.0767 14.224 82.0194 13.9673 82.5934 13.454C83.172 12.936 83.4614 12.0867 83.4614 10.906V6.832H81.3124V10.402C81.3124 11.158 81.1957 11.6923 80.9624 12.005C80.7337 12.3177 80.3347 12.474 79.7654 12.474C79.2007 12.474 78.8017 12.3177 78.5684 12.005C78.335 11.6923 78.2184 11.158 78.2184 10.402V6.832H76.0694V10.906C76.0694 12.0867 76.3587 12.936 76.9374 13.454C77.516 13.9673 78.4587 14.224 79.7654 14.224ZM93.0391 14.224C93.7951 14.224 94.4811 14.0607 95.0971 13.734C95.7131 13.4073 96.1891 12.9547 96.5251 12.376L94.9781 11.599C94.7121 11.9163 94.4345 12.1473 94.1451 12.292C93.8605 12.4367 93.5315 12.509 93.1581 12.509C92.5608 12.509 92.0801 12.3433 91.7161 12.012C91.3521 11.6807 91.1701 11.242 91.1701 10.696H96.6651C96.6791 10.5747 96.6861 10.493 96.6861 10.451C96.6908 10.4043 96.6931 10.3507 96.6931 10.29C96.6931 9.55733 96.5345 8.91567 96.2171 8.365C95.9045 7.81433 95.4658 7.385 94.9011 7.077C94.3411 6.76433 93.6878 6.608 92.9411 6.608C92.1945 6.608 91.5201 6.77833 90.9181 7.119C90.3208 7.455 89.8448 7.91 89.4901 8.484C89.1355 9.058 88.9581 9.702 88.9581 10.416C88.9581 11.1393 89.1355 11.788 89.4901 12.362C89.8495 12.936 90.3371 13.391 90.9531 13.727C91.5691 14.0583 92.2645 14.224 93.0391 14.224ZM91.2471 9.506C91.2938 9.09067 91.4665 8.764 91.7651 8.526C92.0638 8.288 92.4465 8.169 92.9131 8.169C93.3565 8.169 93.7251 8.288 94.0191 8.526C94.3178 8.764 94.5045 9.09067 94.5791 9.506H91.2471ZM98.6322 10.871H103.14V9.023H98.6322V10.871ZM105.673 14H107.822V9.639C107.822 9.275 107.955 8.96467 108.221 8.708C108.492 8.45133 108.835 8.323 109.25 8.323C109.666 8.323 109.99 8.456 110.223 8.722C110.461 8.988 110.58 9.34267 110.58 9.786V14H112.729V9.618C112.729 9.25867 112.86 8.953 113.121 8.701C113.387 8.449 113.73 8.323 114.15 8.323C114.556 8.323 114.881 8.45833 115.123 8.729C115.366 8.995 115.487 9.36133 115.487 9.828V14H117.636V9.24C117.636 8.70333 117.52 8.239 117.286 7.847C117.058 7.45033 116.743 7.14467 116.341 6.93C115.94 6.71533 115.48 6.608 114.962 6.608C114.444 6.608 113.985 6.72233 113.583 6.951C113.182 7.17967 112.806 7.52033 112.456 7.973C112.265 7.55767 111.948 7.22633 111.504 6.979C111.061 6.73167 110.564 6.608 110.013 6.608C109.234 6.608 108.504 6.94867 107.822 7.63V6.832H105.673V14ZM123.045 14.224C123.535 14.224 123.992 14.1237 124.417 13.923C124.846 13.7177 125.224 13.4283 125.551 13.055V14H127.7V6.832H125.551V7.707C125.266 7.36167 124.905 7.09333 124.466 6.902C124.027 6.706 123.554 6.608 123.045 6.608C122.354 6.608 121.741 6.776 121.204 7.112C120.672 7.44333 120.254 7.896 119.951 8.47C119.648 9.03933 119.496 9.68333 119.496 10.402C119.496 11.1393 119.655 11.7973 119.972 12.376C120.289 12.95 120.714 13.4027 121.246 13.734C121.783 14.0607 122.382 14.224 123.045 14.224ZM123.682 12.397C123.127 12.397 122.667 12.2103 122.303 11.837C121.939 11.4637 121.757 10.99 121.757 10.416C121.757 9.842 121.939 9.36833 122.303 8.995C122.672 8.62167 123.131 8.435 123.682 8.435C124.237 8.435 124.695 8.62167 125.054 8.995C125.418 9.36367 125.6 9.83733 125.6 10.416C125.6 10.9947 125.42 11.4707 125.061 11.844C124.702 12.2127 124.242 12.397 123.682 12.397ZM131.299 5.341C131.649 5.341 131.948 5.215 132.195 4.963C132.442 4.711 132.566 4.41 132.566 4.06C132.566 3.71 132.442 3.41133 132.195 3.164C131.948 2.91667 131.649 2.793 131.299 2.793C130.944 2.793 130.641 2.91667 130.389 3.164C130.142 3.41133 130.018 3.71 130.018 4.06C130.018 4.41467 130.142 4.718 130.389 4.97C130.641 5.21733 130.944 5.341 131.299 5.341ZM130.221 14H132.37V6.832H130.221V14ZM134.904 14H137.053V1.96H134.904V14ZM141.029 8.743C141.416 8.743 141.745 8.60767 142.016 8.337C142.291 8.06167 142.428 7.73033 142.428 7.343C142.428 6.95567 142.291 6.62667 142.016 6.356C141.745 6.08067 141.416 5.943 141.029 5.943C140.641 5.943 140.31 6.08067 140.035 6.356C139.764 6.62667 139.629 6.95567 139.629 7.343C139.629 7.73033 139.764 8.06167 140.035 8.337C140.31 8.60767 140.641 8.743 141.029 8.743ZM141.029 14.224C141.416 14.224 141.745 14.0887 142.016 13.818C142.291 13.5427 142.428 13.2113 142.428 12.824C142.428 12.4367 142.291 12.1077 142.016 11.837C141.745 11.5617 141.416 11.424 141.029 11.424C140.641 11.424 140.31 11.5617 140.035 11.837C139.764 12.1077 139.629 12.4367 139.629 12.824C139.629 13.2113 139.764 13.5427 140.035 13.818C140.31 14.0887 140.641 14.224 141.029 14.224Z" fill="#A8A8A8"/>
<defs>
<filter id="filter0_d_101_220" x="0" y="31" width="828" height="78" filterUnits="userSpaceOnUse" color-interpolation-filters="sRGB">
<feFlood flood-opacity="0" result="BackgroundImageFix"/>
<feColorMatrix in="SourceAlpha" type="matrix" values="0 0 0 0 0 0 0 0 0 0 0 0 0 0 0 0 0 0 127 0" result="hardAlpha"/>
<feOffset dx="4" dy="10"/>
<feGaussianBlur stdDeviation="7.5"/>
<feComposite in2="hardAlpha" operator="out"/>
<feColorMatrix type="matrix" values="0 0 0 0 0 0 0 0 0 0 0 0 0 0 0 0 0 0 0.5 0"/>
<feBlend mode="normal" in2="BackgroundImageFix" result="effect1_dropShadow_101_220"/>
<feBlend mode="normal" in="SourceGraphic" in2="effect1_dropShadow_101_220" result="shape"/>
</filter>
</defs>
</svg>
